<?xml version="1.0" encoding="UTF-8"?>
<!DOCTYPE svg PUBLIC "-//W3C//DTD SVG 1.1//EN" "http://www.w3.org/Graphics/SVG/1.1/DTD/svg11.dtd">
<!-- Creator: CorelDRAW -->
<svg xmlns="http://www.w3.org/2000/svg" xml:space="preserve" width="512px" height="512px" version="1.1" style="shape-rendering:geometricPrecision; text-rendering:geometricPrecision; image-rendering:optimizeQuality; fill-rule:evenodd; clip-rule:evenodd"
viewBox="0 0 512 512"
 xmlns:xlink="http://www.w3.org/1999/xlink">
 <defs>
  <style type="text/css">
   <![CDATA[
    .fil0 {fill:black}
    .fil5 {fill:#9F5645}
    .fil1 {fill:#AF593C}
    .fil4 {fill:#C16752}
    .fil2 {fill:#DD7558}
    .fil3 {fill:#E48E66}
   ]]>
  </style>
 </defs>
 <g id="Layer_x0020_1">
  <metadata id="CorelCorpID_0Corel-Layer"/>
  <g id="_341483400">
   <polygon class="fil0" points="295,31 313,41 328,50 219,118 219,118 186,99 "/>
   <path class="fil1" d="M136 79l0 -2c0,-1 0,-2 2,-3l2 -2 46 27 109 -68 18 10 15 9c0,0 0,0 0,0l-109 68 35 20 55 -32 58 -34 3 2c1,1 2,2 2,3l0 2 -59 34 -57 33c-2,0 -3,0 -4,0l-37 -21 0 44c0,3 -3,4 -5,3l-27 -15c-1,0 -1,-2 -1,-3l0 -49 -46 -26z"/>
   <path class="fil2" d="M199 224c-1,0 -2,0 -2,0l-42 -24c-1,-1 -2,-2 -2,-4l0 -50c0,-2 2,-4 4,-4 2,0 4,2 4,4l0 48 40 23c2,1 2,3 1,5 -1,2 -2,2 -3,2z"/>
   <path class="fil1" d="M254 279c-2,0 -4,-2 -4,-4l0 -132c0,-2 2,-4 4,-4 2,0 4,2 4,4l0 132c0,2 -2,4 -4,4z"/>
   <path class="fil1" d="M302 231c-1,0 -2,-1 -3,-2 -1,-2 0,-4 2,-5l46 -27 0 -54c0,-2 2,-4 4,-4 2,0 4,2 4,4l0 56c0,1 -1,3 -2,3l-49 29c0,0 -1,0 -2,0z"/>
   <path class="fil1" d="M205 62c-1,0 -3,-1 -3,-2 -1,-2 -1,-4 1,-5l49 -29c2,-1 4,0 5,2 1,2 0,4 -1,5l-49 28c-1,1 -1,1 -2,1z"/>
   <path class="fil2" d="M215 169l0 -44 -33 -20 0 0 0 49c0,1 0,3 1,3l27 15c2,1 5,0 5,-3z"/>
   <path class="fil3" d="M136 79l0 130c0,1 1,3 2,3l114 66c0,0 0,0 0,0 -1,0 -2,-2 -2,-3l0 -130 -35 -20 0 0 0 44c0,3 -3,4 -5,3l-27 -15c-1,0 -1,-2 -1,-3l0 -49 0 0 -46 -26zm25 67l0 48 40 23c2,1 2,3 1,5 -1,2 -2,2 -3,2 -1,0 -2,0 -2,0l-42 -24c-1,-1 -2,-2 -2,-4l0 -50c0,-2 2,-4 4,-4 2,0 4,2 4,4z"/>
   <path class="fil4" d="M258 145l0 130c0,1 -1,2 -2,3l57 -33 57 -33c1,0 2,-2 2,-3l0 -130 -59 34 -55 32zm43 79l46 -27 0 -54c0,-2 2,-4 4,-4 2,0 4,2 4,4l0 56c0,1 -1,3 -2,3l-49 29c0,0 -1,0 -2,0 -1,0 -2,-1 -3,-2 -1,-2 0,-4 2,-5z"/>
   <polygon class="fil4" points="328,50 219,118 254,138 309,106 367,72 "/>
   <path class="fil4" d="M252 26c2,-1 4,0 5,2 1,2 0,4 -1,5l-49 28c-1,1 -1,1 -2,1 -1,0 -3,-1 -3,-2 -1,-2 -1,-4 1,-5l49 -29zm0 -18l-57 33 -55 31 46 27 0 0 0 -1 109 -67 -40 -23c-1,-1 -2,-1 -3,0z"/>
  </g>
  <g id="_341480832">
   <g>
    <polygon class="fil0" points="413,235 431,245 446,254 337,322 337,322 304,303 "/>
    <path class="fil1" d="M254 283l0 -1c0,-2 0,-3 2,-4l2 -1 46 26 109 -68 18 10 15 9c0,0 0,0 0,1l-109 67 35 20 55 -31 58 -34 3 1c1,1 2,2 2,4l0 1 -59 34 -57 33c-2,1 -3,1 -4,0l-37 -21 0 44c0,4 -3,5 -5,4l-27 -15c-1,-1 -1,-2 -1,-4l0 -48 -46 -27z"/>
    <path class="fil2" d="M317 429c-1,0 -2,-1 -2,-1l-42 -24c-1,-1 -2,-2 -2,-3l0 -51c0,-2 2,-4 4,-4 2,0 4,2 4,4l0 48 40 23c2,1 2,4 1,6 -1,1 -2,2 -3,2z"/>
    <path class="fil1" d="M372 483c-3,0 -4,-2 -4,-4l0 -132c0,-2 1,-4 4,-4 2,0 4,2 4,4l0 132c0,2 -2,4 -4,4z"/>
    <path class="fil1" d="M420 435c-1,0 -2,0 -3,-2 -1,-1 0,-4 1,-5l47 -27 0 -54c0,-2 2,-4 4,-4 2,0 4,2 4,4l0 56c0,2 -1,3 -2,4l-49 28c0,0 -1,0 -2,0z"/>
    <path class="fil1" d="M323 266c-1,0 -3,0 -3,-2 -1,-1 -1,-4 1,-5l49 -28c1,-1 4,-1 5,1 1,2 0,4 -1,5l-49 29c-1,0 -1,0 -2,0z"/>
    <path class="fil2" d="M333 373l0 -44 -33 -19 0 0 0 48c0,2 0,3 1,4l27 15c2,1 5,0 5,-4z"/>
    <path class="fil3" d="M254 283l0 130c0,2 1,3 2,4l114 66c0,0 0,0 0,0 -1,-1 -2,-2 -2,-4l0 -130 -35 -20 0 0 0 44c0,4 -3,5 -5,4l-27 -15c-1,-1 -1,-2 -1,-4l0 -48 0 0 -46 -27zm25 67l0 48 40 23c2,1 2,4 1,6 -1,1 -2,2 -3,2 -1,0 -2,-1 -2,-1l-42 -24c-1,-1 -2,-2 -2,-3l0 -51c0,-2 2,-4 4,-4 2,0 4,2 4,4z"/>
    <path class="fil4" d="M376 349l0 130c0,1 -1,2 -2,3l57 -32 57 -33c1,-1 2,-2 2,-4l0 -130 -59 34 -55 32zm42 79l47 -27 0 -54c0,-2 2,-4 4,-4 2,0 4,2 4,4l0 56c0,2 -1,3 -2,4l-49 28c0,0 -1,0 -2,0 -1,0 -2,0 -3,-2 -1,-1 0,-4 1,-5z"/>
    <polygon class="fil4" points="446,254 337,322 372,342 427,311 485,277 "/>
    <path class="fil4" d="M370 231c1,-1 4,-1 5,1 1,2 0,4 -1,5l-49 29c-1,0 -1,0 -2,0 -1,0 -3,0 -3,-2 -1,-1 -1,-4 1,-5l49 -28zm0 -19l-57 33 -55 32 46 26 0 0 0 0 109 -68 -40 -23c-1,0 -2,0 -3,0z"/>
   </g>
   <g>
    <polygon class="fil0" points="94,235 77,245 61,254 171,322 170,322 204,303 "/>
    <path class="fil1" d="M254 283l0 -1c0,-2 -1,-3 -2,-4l-3 -1 -45 26 -109 -68 -18 10 -16 9c0,0 0,0 0,1l110 67 -35 20 -55 -31 -59 -34 -2 1c-1,1 -2,2 -2,4l0 1 59 34 57 33c2,1 2,1 4,0l36 -21 0 44c0,4 3,5 6,4l26 -15c1,-1 2,-2 2,-4l0 -48 46 -27z"/>
    <path class="fil2" d="M191 429c0,0 1,-1 2,-1l42 -24c1,-1 2,-2 2,-3l0 -51c0,-2 -2,-4 -4,-4 -3,0 -4,2 -4,4l0 48 -40 23c-2,1 -3,4 -2,6 1,1 2,2 4,2z"/>
    <path class="fil1" d="M136 483c2,0 4,-2 4,-4l0 -132c0,-2 -2,-4 -4,-4 -2,0 -4,2 -4,4l0 132c0,2 2,4 4,4z"/>
    <path class="fil1" d="M87 435c1,0 3,0 3,-2 1,-1 1,-4 -1,-5l-47 -27 0 -54c0,-2 -1,-4 -4,-4 -2,0 -4,2 -4,4l0 56c0,2 1,3 2,4l49 28c1,0 1,0 2,0z"/>
    <path class="fil1" d="M185 266c1,0 2,0 3,-2 1,-1 0,-4 -2,-5l-48 -28c-2,-1 -4,-1 -6,1 -1,2 0,4 2,5l49 29c0,0 1,0 2,0z"/>
    <path class="fil2" d="M174 373l0 -44 34 -19 0 0 0 48c0,2 -1,3 -2,4l-26 15c-3,1 -6,0 -6,-4z"/>
    <path class="fil3" d="M254 283l0 130c0,2 -1,3 -2,4l-114 66c0,0 -1,0 -1,0 2,-1 3,-2 3,-4l0 -130 34 -20 0 0 0 44c0,4 3,5 6,4l26 -15c1,-1 2,-2 2,-4l0 -48 0 0 46 -27zm-25 67l0 48 -40 23c-2,1 -3,4 -2,6 1,1 2,2 4,2 0,0 1,-1 2,-1l42 -24c1,-1 2,-2 2,-3l0 -51c0,-2 -2,-4 -4,-4 -3,0 -4,2 -4,4z"/>
    <path class="fil4" d="M132 349l0 130c0,1 0,2 1,3l-56 -32 -57 -33c-2,-1 -2,-2 -2,-4l0 -130 59 34 55 32zm-43 79l-47 -27 0 -54c0,-2 -1,-4 -4,-4 -2,0 -4,2 -4,4l0 56c0,2 1,3 2,4l49 28c1,0 1,0 2,0 1,0 3,0 3,-2 1,-1 1,-4 -1,-5z"/>
    <polygon class="fil4" points="61,254 171,322 136,342 81,311 22,277 "/>
    <path class="fil4" d="M138 231c-2,-1 -4,-1 -6,1 -1,2 0,4 2,5l49 29c0,0 1,0 2,0 1,0 2,0 3,-2 1,-1 0,-4 -2,-5l-48 -28zm0 -19l57 33 54 32 -45 26 0 0 -1 0 -108 -68 39 -23c1,0 3,0 4,0z"/>
   </g>
  </g>
  <g id="_341479104">
   <g>
    <path class="fil5" d="M254 283l0 -1c0,-2 0,-3 2,-4l2 -1 7 4 -5 3c0,0 -1,1 -2,1l0 0 -4 -2z"/>
    <polygon class="fil5" points="254,283 254,287 254,287 255,287 257,287 258,285 258,285 "/>
    <path class="fil5" d="M377 215c-1,1 -2,3 -4,4l-108 62 -7 -4 55 -32 57 -33c1,0 2,0 3,0l4 3z"/>
   </g>
   <g>
    <path class="fil5" d="M254 283l0 -1c0,-2 -1,-3 -2,-4l-3 -1 -7 4 7 4 0 0 1 0 4 -2z"/>
    <path class="fil5" d="M254 283l0 4 -1 -1 -2 -1c0,0 -1,0 -1,0l0 0 4 -2z"/>
    <path class="fil5" d="M242 281l-108 -62c-2,-1 -3,-3 -4,-4l4 -3c1,0 3,0 4,0l57 33 54 32 -7 4z"/>
   </g>
  </g>
 </g>
</svg>
