<?xml version="1.0" encoding="UTF-8" standalone="no"?> <svg xmlns="http://www.w3.org/2000/svg" width="1706.67" height="1598.18" viewBox="0 0 1706.67 1598.18">
  <g id="Layer_x0020_1" transform="translate(-313.33 -367.58)">
    <path id="Path_134" data-name="Path 134" d="M438.83,1290.74H1918.7V467.18a46.361,46.361,0,0,0-46.26-46.26H485.09a46.426,46.426,0,0,0-46.26,46.26v823.56Zm1506.54,53.34H412.17a26.669,26.669,0,0,1-26.67-26.67V467.18c0-54.76,44.83-99.6,99.59-99.6H1872.44c54.76,0,99.6,44.82,99.6,99.6v850.23a26.669,26.669,0,0,1-26.67,26.67Z" fill="#022a32"/>
    <path id="Path_135" data-name="Path 135" d="M360.01,1290.74H1973.32a46.827,46.827,0,0,1,46.68,46.62v81.26a46.827,46.827,0,0,1-46.68,46.63H360.01a46.827,46.827,0,0,1-46.68-46.63v-81.26a46.827,46.827,0,0,1,46.68-46.62Z" fill="#022a32"/>
    <path id="Path_136" data-name="Path 136" d="M686.55,1881a26.665,26.665,0,0,0,37.71,37.71l442.41-442.41,442.41,442.41a26.665,26.665,0,0,0,37.71-37.71l-460.94-460.94-.32-.33a26.683,26.683,0,0,0-37.72,0h0L686.54,1881Z" fill="#022a32"/>
    <path id="Path_137" data-name="Path 137" d="M1140,1939.09a26.67,26.67,0,0,0,53.34,0v-500.5a26.67,26.67,0,0,0-53.34,0Z" fill="#022a32"/>
    <path id="Path_138" data-name="Path 138" d="M789.17,677.44H922.5a26.669,26.669,0,0,1,26.67,26.67v404.17a26.669,26.669,0,0,1-26.67,26.67H789.17a26.669,26.669,0,0,1-26.67-26.67V704.11A26.669,26.669,0,0,1,789.17,677.44Z" fill="#db5656"/>
    <path id="Path_139" data-name="Path 139" d="M1112.09,594.11h133.33a26.669,26.669,0,0,1,26.67,26.67v487.5a26.669,26.669,0,0,1-26.67,26.67H1112.09a26.669,26.669,0,0,1-26.67-26.67V620.78a26.669,26.669,0,0,1,26.67-26.67Z" fill="#db5656"/>
    <path id="Path_140" data-name="Path 140" d="M1435.02,514.94h133.33a26.669,26.669,0,0,1,26.67,26.67v566.67a26.669,26.669,0,0,1-26.67,26.67H1435.02a26.669,26.669,0,0,1-26.67-26.67V541.61a26.669,26.669,0,0,1,26.67-26.67Z" fill="#db5656"/>
    <path id="Path_141" data-name="Path 141" d="M650.63,1177.45a26.67,26.67,0,0,0,0,53.34H1706.89a26.67,26.67,0,0,0,0-53.34Z" fill="#db5656"/>
  </g>
</svg>
